<mxfile host="app.diagrams.net" modified="2024-06-18T22:36:12.288Z" agent="Mozilla/5.0 (Windows NT 10.0; Win64; x64) AppleWebKit/537.36 (KHTML, like Gecko) Chrome/125.0.0.0 Safari/537.36" etag="zZECQXZE_DNvEGGTY-rK" version="24.5.4" type="github">
  <diagram name="Page-1" id="stgzFN4wYGvFmKcEGMf-">
    <mxGraphModel dx="2284" dy="1846" grid="1" gridSize="10" guides="1" tooltips="1" connect="1" arrows="1" fold="1" page="1" pageScale="1" pageWidth="850" pageHeight="1100" math="0" shadow="0">
      <root>
        <mxCell id="0" />
        <mxCell id="1" parent="0" />
        <mxCell id="SBrDxnc8rNuMI0Z8W_tl-19" style="edgeStyle=orthogonalEdgeStyle;rounded=0;orthogonalLoop=1;jettySize=auto;html=1;entryX=0;entryY=0.5;entryDx=0;entryDy=0;" edge="1" parent="1" source="SBrDxnc8rNuMI0Z8W_tl-1" target="SBrDxnc8rNuMI0Z8W_tl-18">
          <mxGeometry relative="1" as="geometry">
            <Array as="points">
              <mxPoint x="200" y="225" />
              <mxPoint x="200" />
            </Array>
          </mxGeometry>
        </mxCell>
        <mxCell id="SBrDxnc8rNuMI0Z8W_tl-1" value="" style="sketch=0;outlineConnect=0;fontColor=#232F3E;gradientColor=none;fillColor=#232F3D;strokeColor=none;dashed=0;verticalLabelPosition=bottom;verticalAlign=top;align=center;html=1;fontSize=12;fontStyle=0;aspect=fixed;pointerEvents=1;shape=mxgraph.aws4.mobile_client;" vertex="1" parent="1">
          <mxGeometry x="80" y="186" width="41" height="78" as="geometry" />
        </mxCell>
        <mxCell id="SBrDxnc8rNuMI0Z8W_tl-11" style="edgeStyle=orthogonalEdgeStyle;rounded=0;orthogonalLoop=1;jettySize=auto;html=1;" edge="1" parent="1" source="SBrDxnc8rNuMI0Z8W_tl-10" target="SBrDxnc8rNuMI0Z8W_tl-1">
          <mxGeometry relative="1" as="geometry" />
        </mxCell>
        <mxCell id="SBrDxnc8rNuMI0Z8W_tl-10" value="Independiente&lt;br&gt;Pensionado&lt;div&gt;Domestico&lt;/div&gt;" style="sketch=0;outlineConnect=0;fontColor=#232F3E;gradientColor=none;fillColor=#232F3D;strokeColor=none;dashed=0;verticalLabelPosition=bottom;verticalAlign=top;align=center;html=1;fontSize=12;fontStyle=0;aspect=fixed;pointerEvents=1;shape=mxgraph.aws4.user;" vertex="1" parent="1">
          <mxGeometry x="-70" y="201" width="48" height="48" as="geometry" />
        </mxCell>
        <mxCell id="SBrDxnc8rNuMI0Z8W_tl-12" value="" style="group" vertex="1" connectable="0" parent="1">
          <mxGeometry x="300" y="160" width="200" height="260" as="geometry" />
        </mxCell>
        <mxCell id="SBrDxnc8rNuMI0Z8W_tl-2" value="" style="rounded=1;whiteSpace=wrap;html=1;" vertex="1" parent="SBrDxnc8rNuMI0Z8W_tl-12">
          <mxGeometry width="200" height="260" as="geometry" />
        </mxCell>
        <mxCell id="SBrDxnc8rNuMI0Z8W_tl-7" value="" style="shape=image;imageAspect=0;aspect=fixed;verticalLabelPosition=bottom;verticalAlign=top;image=data:image/webp,UklGRtANAABXRUJQVlA4WAoAAAAYAAAAYwAAYwAAQUxQSMQHAAABsIb/nyFJ0i8isrGcmbVt27Zt27Zt27Zt27btHaxuuisj4v990VVZfZN9vhcRMQH6P4bOee/cQOaDV8sQ3IDkgiT5caabbdapx5YkHwaeIGmu/W5/f3hPjCN/eeOa7aaVFAYWL42566tUbzy8nuTdAFJIu30HFmPKZmY5xQi8taYUBoygOV6FMhlmBmBmWIxw+/gqBgbntJ1RZsyMimaQIj8voTAw6DiImFHdjJyshI0UBgCvk0gZMyqbYREgwsYqahe0N9Ewo7IZOTH8BbAEyyjULGhpLGNUNsNKuGNKnUAkMnwS+Vo5jfk1CaOyGSnzw/qStiUaJQ/J1SrobEqMqmZYCZcOku/QrUQzIpsr1Mhr5oxZJTMifLScVEijf0PGSHzRpRoHXUaJ0dqMXMIJhYKT18KYGUbJTgq1cZrkD8xoaQYRXppHCpKCDiICZok3VN+gnYm0MiNHevaVCidJXg8TDTDLLCJfF6cHiUZzw0p4YBopqK/TeEPJTYicoFATp3F+JTczIyV+3VIq1DxoJZLR1xIvqK5ei5KtjxlWwrXjyXtVOJlIs8yw8eTqEbQVEcCMZHy5mlSo8kska4IZ88nX5SiiYYaVcNZoCk4VnaYcibWKrK5Ql3OJZhDhzUWkoMpBGxKNClvV5zKiYZF4mFQ4tXMxkSo71udiImY8OYsU1LZ/n2RVtq/PKUTLHC0VattrNsNaEdmgPnsRjd6x5VzhXRtBOxONlpZZqj6rkSxz3dxjSZILwVXwurWKGT3TytXDabpeDIPv7z982QkkybfSGN+QK2Q+LVTfd0hGMoBhz5yyzpjyzbwWIVuFyPUKdQk6g4hhOcYM8M1c8k2CDiEazc0im9fHa1GyGdY3p9jg46CmTo9UygwbT64ukl4mYfQ1MxocpUKS03jDyC2MkosVVNugTYgtwMyIM8pLQSuRrJmZwWzy9ZH0GhFrhhF5sNkpRJobJZcrqMZBS5LNrBlGZBMVkl4mWRMjM2IiuTop6DQamLXKfD9IQVONxJoYFtlUQXV/jgZmTTBKzlO3NiYagBkNLpRXzb3G+YIGZs3MjAWli4gAhjV4QHJ1U9BkX9IwzACMxJvdk39PNszIJY94edU/aLyXSQkzA4zMj0PJmGERrpO8BsIgdz6UyTDDjAwZw2Ik7y15DYxeWvE9SDGbYUbOZqk0eGw2OaeB0gX57d8BiM0TwFOrSYUG0iBp+Ys/TrTseeOk+STnNcAGScUs6+x7ynnnnrD7qtNIckEDcAiqHLwGah9aOtXYOef6xznn+vzT60MITlIx0QQTDemfCSeeeMLaNXVO1/L7H72rKLQTtC9//MERCrVyi6y47MqTy+ldyOynop1Cl5ONO/vF++D9KOG1OMArkl6m7GX39oLOo7fBDe25oObB/f2C1qC35Msu6X2AfdsrdAXAnW0Fyc2w/NrLz+il0Mp575o4186qxMynHdJpw7/67tM55CXn+vjgJQVt9vPnX/ywgXw1r/GPfDcB+f2jx5drEtQ0qKnrh886JHkfJMmpr1ffoH7fajiQUwZGbCQvBUkTzbvwtJJXMXhwp1z/uMGDhnRLUve448jLLbbqfB2Sk8YeMmSsNpxOhTJZStny3zhXQUEdOz//J5RvbKbwzIhfPplWrl8uiUN//3F+aZZvhpdnae63gU+3l7R9OWz4yO3lKwQdRkwkA3KD9wspaKGPAAw4YVmANRT65UMw9pE2wBi2ynBSMrhnAl2Jwd0KrYKWIGcSfPb6t8BCCkFrQJlyiika35FLVu6n14kNdpXWIuaU6Y1lyr1sootplNxYRXqRSOLJBbs0xgofHKXCa06jJAGkbBiJVfrpTVLJbtLaJIMI0Mt7o+siysjNFbyWIhG5TU29+r5MSYLXn/wWcsZGDUs8vddRn8Ca0oXtBJ1FzPw8SB2SgqSgtYkk3p5H6t6xl1EmcZOk7itOUkd70rOkyOnqUEuv24mZH8aVc9LKmI0amRHjqbOQpKIfuj8jR9ZVaKXRviJH9laX5Dp1DXFU+bJLkgteoR/G+JacWKGC02Q9ZGMueUlBa40634yu5v3R+RE5smWl6SOZkdPKSfJajDyqfD1a/zk9QozcqI4m3jlNMpJszCsvKWhdYv0KHUlp2Lzq9D4EyavrM3LkYHU5+UK31qwoisI5zYZZ4qvp1XeBKdSh64mZEdOq7+Zkq1VT53ULJYm/jlt8ruXP4xkVWolI4rt1B3VNcxJk6lNo/LMvOv/KxVVoij+JJCBDZn8VepwGCYZ+24BMjTq0MMAZKoJWgZIcMylmGnNK0/5FSU5AzMn6rNxOb8nHndLrNHqaNRp8UeUCenq5UR2aP/b+xbEqFLRGg1SmnHOKDe5RpxbroYw5pVyCxdRoZw2AHzukjwH2lNYFGNbdotAVAHepUwsDnKZCCprxEVo/NKsUNNNLtNz7Y4DVqjhNdvtD9z6xr7x2f/LeB++eUZrklofufeIwtfRa/rH77ntsNRWa/pMvPx26vYKkIC154Vu//v7rmxcsLjkpSOvf80NPOfS2+bX1a08+f+cEcq1GRaeKRVdnp5p7J2nQhIMkOS9JXtKY0848RArqR+ed816S9855JznvnPcV5Lxz3vdp0wf1DV4tg5ck7+Wd5F21Wjvn1KbzTv+rD1ZQOCAkBQAAUBoAnQEqZABkAD4ZCoRBIQXKL6EEAGEtQBqYG/g2+E/Hf2VKr/Rvuv+z/+p6JIwfZj98/Lv/L+/v7APkV5gv6c/0n8zO0X5hf5P/V/8Z/R/ew/yn+A9i/+M9QD+hfzX1lv997FH7D+wB+qHpm/8f/N/BV+0H7J/AT/If6b/u/z67gD0AJLm+wHKD0AP5vvgH6AKaAeQGHZjxyXhRQEai8BhJQV4enrGNcDSkMY+Gh0WJ+qegicvaJtExY5cQBI62YoIfMwnOMcCEv7cyvhMe4MU8IIKSnVz7FwQAAP7/q1GL+dPH//9B0fs7mhyGMoZv9MakNPaFpoyYjR1/nR7OthhNFG4dh8nRoJ+W02vtBWFyItD3/3BOmGldSwuvVqLkxMQHKp87LDPACg//fIP4cwAS9//3th8BKtbrkk76TfjCKELdIG+ZBJ33aPdQz7XDHjixzSZIybaUKGrzhMxnQY81hq33I4jHh6X6lzhPAGg4QMOB9nKsbqy5e7FDUTW+tygTaFivapRVfqEdjQHX9GgowFhxE2d6oDJvCbfJoLLFaM+/rkP0cx4S9/u8XPMEk4ihOfUNCYZwgS+Hp6uLv43CdR6E6/AE+ahS4y6P6qpqAomarsqOf/QU4DQU4U523D4pub1G8WFy1sD/hNBR7J9BE/DEuR3k6YVEd4uVlvUqdM+27ZPtXKVpNC8r/jE27+X3lRBNcnlDxDqDtGcRHS2Dd0L7XbQM2D6CoA+n7ecOZqWIofgcPDdbm15ltI3fQoZR3/b9HrxDxo+5BNkXlN9AViTRpghnobFm+o/mdKo7HoTAz8lfUr2v9UE3RuikqQqhCaPvLbKy+ZwB8T1Bo4lJtra2neb4R0N8QZn/9qpsBoa0fLDkWL+R9o8NmpBjHMy2CYj02kwFE7YJpbNIBwROuIA+j/awrraa3wN1VDvgOhUMb+W8Ump5baM9SKoIb0iE/9OeY//lb+ANjdit055co95GvuY3ZvPhVYFA3Qrw+MNbIP2+k5Peog0X9L/MSXvW2tVsZHTDcMtUHdqP0dNarMhOinMcP88cJG8PXtaewwMqoF7iXhG+S+nExL5JlvToD0InOx5E5lcs3s6x/2cXVwqDZk3sbPLTmHs+XTdQjd8IPo+3EHtz6m9zaz8PI+UCqiIjUIPjRC4iQ/KYh8GTyIatjwSL4a1N8E60ZTN+BDVQ5EMkDhcXJAeIWr8SZpqdOGi21vFq3P9nhIjYrJ0AkC+hle38fxsEbIwczUz5cGCqpQ2NQk8qtN3ypXy/muOq3NBe+OXRbm9xxdIOLQOq+up/epYwd5qCVdb8h18Yw0oHCS00f4tiO2ouE/re2l15EyvTZ4up6bIGA42B9chFgRz6TEelVfz8REned/+BdHBJ047A7Sv73sLbbncimolRgTjHYIypD4cWH/Kz+IirSLMrUkQHlsR8U3fclo1z2nEff+7FQsrPo1RTXGu+BZSyylQIfBYBYuttD7OMpxcygn3mHCGx/jR2oX+2x3DgRIxuIELaBX2mJ4oRsY1ZbH7+nkOdswP2VOkNWJtInGSWJUSwE1ZfdH1+Y4OOPOL4Tbxi4mqIGOEbvyXtn0UZgg1+MDs4/JptX4nPUNOqLGpKuifPu0h+zQCqe4DEvxbkerxw9GBTfezcSQgg87XLCRiRtor8C7ilorg9yibmaDwRPKzN5YELADO1rMJrI02Eu0x86xrr+eqcEZ5o+q0sACLCFE4onv/f66zZwAAAAB6UAABFWElGugAAAEV4aWYAAElJKgAIAAAABgASAQMAAQAAAAEAAAAaAQUAAQAAAFYAAAAbAQUAAQAAAF4AAAAoAQMAAQAAAAIAAAATAgMAAQAAAAEAAABphwQAAQAAAGYAAAAAAAAAOGMAAOgDAAA4YwAA6AMAAAYAAJAHAAQAAAAwMjEwAZEHAAQAAAABAgMAAKAHAAQAAAAwMTAwAaADAAEAAAD//wAAAqAEAAEAAABkAAAAA6AEAAEAAABkAAAAAAAAAA==;" vertex="1" parent="SBrDxnc8rNuMI0Z8W_tl-12">
          <mxGeometry x="5" y="1.7333333333333334" width="52.631578947368425" height="52.631578947368425" as="geometry" />
        </mxCell>
        <mxCell id="SBrDxnc8rNuMI0Z8W_tl-27" value="&lt;b&gt;Módulo Afiliación&lt;/b&gt;" style="rounded=1;whiteSpace=wrap;html=1;align=center;verticalAlign=top;fillColor=#f5f5f5;fontColor=#333333;strokeColor=#666666;" vertex="1" parent="SBrDxnc8rNuMI0Z8W_tl-12">
          <mxGeometry x="30" y="70" width="130" height="40" as="geometry" />
        </mxCell>
        <mxCell id="SBrDxnc8rNuMI0Z8W_tl-20" style="edgeStyle=orthogonalEdgeStyle;rounded=0;orthogonalLoop=1;jettySize=auto;html=1;entryX=0;entryY=0.5;entryDx=0;entryDy=0;" edge="1" parent="1" source="SBrDxnc8rNuMI0Z8W_tl-1" target="SBrDxnc8rNuMI0Z8W_tl-2">
          <mxGeometry relative="1" as="geometry">
            <mxPoint x="240" y="330" as="targetPoint" />
            <Array as="points">
              <mxPoint x="200" y="225" />
              <mxPoint x="200" y="290" />
            </Array>
          </mxGeometry>
        </mxCell>
        <mxCell id="SBrDxnc8rNuMI0Z8W_tl-25" value="" style="group" vertex="1" connectable="0" parent="1">
          <mxGeometry x="620" y="160" width="160" height="150" as="geometry" />
        </mxCell>
        <mxCell id="SBrDxnc8rNuMI0Z8W_tl-22" value="" style="rounded=1;whiteSpace=wrap;html=1;" vertex="1" parent="SBrDxnc8rNuMI0Z8W_tl-25">
          <mxGeometry width="160" height="150" as="geometry" />
        </mxCell>
        <mxCell id="SBrDxnc8rNuMI0Z8W_tl-24" value="" style="shape=image;verticalLabelPosition=bottom;verticalAlign=top;imageAspect=0;aspect=fixed;image=data:image/jpeg,/9j/4AAQSkZJRgABAQAASABIAAD/4QBoRXhpZgAATU0AKgAAAAgAAYdpAAQAAAABAAAAGgAAAAAABJKGAAcAAAAQAAAAUKABAAMAAAABAAEAAKACAAQAAAABAAAA9qADAAQAAAABAAAA9gAAAABBU0NJSQAAAG1hZ2UgMTlN/+0AOFBob3Rvc2hvcCAzLjAAOEJJTQQEAAAAAAAAOEJJTQQlAAAAAAAQ1B2M2Y8AsgTpgAmY7PhCfv/AABEIAPYA9gMBIgACEQEDEQH/xAAfAAABBQEBAQEBAQAAAAAAAAAAAQIDBAUGBwgJCgv/xAC1EAACAQMDAgQDBQUEBAAAAX0BAgMABBEFEiExQQYTUWEHInEUMoGRoQgjQrHBFVLR8CQzYnKCCQoWFxgZGiUmJygpKjQ1Njc4OTpDREVGR0hJSlNUVVZXWFlaY2RlZmdoaWpzdHV2d3h5eoOEhYaHiImKkpOUlZaXmJmaoqOkpaanqKmqsrO0tba3uLm6wsPExcbHyMnK0tPU1dbX2Nna4eLj5OXm5+jp6vHy8/T19vf4+fr/xAAfAQADAQEBAQEBAQEBAAAAAAAAAQIDBAUGBwgJCgv/xAC1EQACAQIEBAMEBwUEBAABAncAAQIDEQQFITEGEkFRB2FxEyIygQgUQpGhscEJIzNS8BVictEKFiQ04SXxFxgZGiYnKCkqNTY3ODk6Q0RFRkdISUpTVFVWV1hZWmNkZWZnaGlqc3R1dnd4eXqCg4SFhoeIiYqSk5SVlpeYmZqio6Slpqeoqaqys7S1tre4ubrCw8TFxsfIycrS09TV1tfY2dri4+Tl5ufo6ery8/T19vf4+fr/2wBDAAICAgICAgMCAgMEAwMDBAUEBAQEBQcFBQUFBQcIBwcHBwcHCAgICAgICAgKCgoKCgoLCwsLCw0NDQ0NDQ0NDQ3/2wBDAQICAgMDAwYDAwYNCQcJDQ0NDQ0NDQ0NDQ0NDQ0NDQ0NDQ0NDQ0NDQ0NDQ0NDQ0NDQ0NDQ0NDQ0NDQ0NDQ0NDQ3/3QAEABD/2gAMAwEAAhEDEQA/AP38ooooAKKKKACiiigAooooAKKKKACiiigAooooAKKKKACiiigAooooAKKKKACiiigAooooAKKKKACiiigAooooA//Q/fyiiigAooooAKKKKACiiigAooooAKKyNc1/QvDOmzaz4j1C10uwgGZbq8mSCFB/tO5VR+dfDPxJ/wCCjPwJ8GPLZeE/tvjO9j4/4l6eRZ7ve5m25HvGjj3rpw+Dr13ajFs4MdmuDwUebFVFH1evyW7Pv2ivwj8a/wDBTH41647xeDdK0fwzbkna5jbULkDtl5SsWf8AtjXzH4j/AGqv2i/FLOdW+IOtqr9Y7O4+wx/982wiFe5R4WxctZtR/H8v8z4zF+JOWU3ajGU/lZfi7/gf08UzzI87dy59M1/JdqHjLxhqzmTVde1S9Y9TcXs8p/8AH3NZH9palu3/AGu43evmvn8812rhCXWr+H/BPJl4pU7+7hn/AOBf/an9ddFfyWaf408ZaQ4k0rX9VsmHQ297PEf/ABxxXr3hz9q39o3wqyHSviBrTqnSO9nF+n023IlGKzqcJVV8FRP1Vv8AM6KPihhW/wB7QkvRp/5H9OtFfhP4J/4KZ/GjRGSLxppGj+JrcEb3VG0+6I7/ADxF4s/9sq+4fhr/AMFFPgN42eKy8UPeeDb6TjGpIJbPcewuYdwA95FjFeTichxtHVwuvLX/AIP4H02A40yjFtRjV5X2lp+O34n3vRWZo2t6N4i06HV9Av7bUrG4G6K5tJUnhcequhKn8DWnXkNNOzPqU01dBRRRSGFFFFABRRRQAUUUUAFFFFAH/9H9/KKKKACiiigAooooAKKK4H4g/Ejwz8NtHOqeIJ/3kmRbWseDPcOOyL6Duxwq9+1ZVq9OjB1artFbtmVevTo03VqytFbtna3l5aafay31/PHbW8Cl5ZZWCIijqWYkAD614/8AHvxZ498KfB3xB4y+FFvZ6jrWnWf22BLlWmje2XDSyRqjDe6RZdAThsY5zivgH4l/F/xZ8Tbw/wBpy/ZdMRswadAx8lMdC54Mj/7TcDsBX1Z+y98S113RJPh3rcge70yMtZGTnzrPoY+epiJxj+4R6Gvmsq4ww2JzBYeMfd6N/aa6W6J9D4zC8XYfMMVLAUrxUk1GXW/p08j8A/iH8V/iJ8WNVOtfELX7zW58lo1nkxBDntDCu2KIeyKPevPq+qP2wvge3wO+MuoaXp0Bj8Pa5u1TRiB8iQysfMgB9YJMqB12FCetfK9f0VhKlOdGM6KtFrQ/D81o4iji6lLFtuadm3rfz+YUUhIAyeK9A8K/Cn4neOSv/CHeE9Z1lW6SWdjNLF/38C7B+Jrac4xV5OyOSlRqVZctOLb8lc4CivrPSP2G/wBqPWUEkXgmW1U/8/l7aW5/FXm3D8q6X/h3t+1H/wBC/Yf+DW1/+LrjlmeETs6sfvR6kOHc0krxw8//AAFnxPRX1hrH7D37UWjIZJfBE10o6mzvLS4P/fKTFj+ArwvxV8LfiX4HJ/4THwrrOiqvV72xmhj/AAkZNh/A1tTxdCppTmn6NHNiMqxtBXrUZRXnFr9Dg6KQEEZHNLXQeeek/Db4v/Er4Q6oNX+HniC70eQsGlhjfdaz47TQPuikH+8pI7EV/SB+zt428ffEP4P6B43+Jen2ml6tq0BuRFah0RrVv9TMySEmNpU+fbuIAYfQfgX+yf8ABGX47fGLS/Dd3EzaFpxGpa24yF+xwMP3WezTviMd8Fj/AA1+9/xk8YQ+GtCj8K6OVhub2LyysY2iC0X5cADpuxtUemfavz7jbH4bDQu4rmWrfXyXzP1zw/8ArFDC1cbXm/ZLSMb6N9Wvy08+x7hDNDcRJPbussbgMroQysD0II4IqSvg7wT8Rdd8FTqlq/2nT2bMlnITs56lDzsb6cHuDX2X4V8W6N4w04ahpEu7GBLC3EsLH+F1/keh7V8DlmcUcYuVaS7f5dz9Iy7NqWKVlpLt/kdNRRRXrnqBRRRQAUUUUAFFFFAH/9L9/KKKKACiiigAooriPiD470f4deGbnxHq53CP5LeBTh7ids7I1+vUnsoJ7VnWrQpQdWo7RWrZlXrU6NN1artFatmB8WPivovwu0T7XdYudTugy2NkGw0jDq791jX+I9+g5Nfl34q8V69401qfX/EVy1zdzn6JGnZI16Ki9gPqcnJp/i7xbrfjfX7rxHr83m3Vy3Cj7kUY+7HGOyKOnr1OSSa5qvxbiHiCrmNXljpTWy/V+f5fn+F8ScSVczq8sdKS2X6vz/IK2/DfiHU/Cmu2PiLR5PLu7CZZYz2bH3lb1V1yrDuDWJXsnwq+Cvib4n3IuYQdP0WN9s2oSLkEjqkK8eY/r/Cvc54PjYLD161aMMMm59Lfn5ep4mAw2Ir14wwqbn0t+flbue7/ALTPw00/9qv9nqLXvCEHneIdLQ6ppEYwZfPQbbmyJ9ZFBUDoZFQ9K+K/g5/wTQ8ZeIY4NZ+MWrr4btHCv/ZdhsudQKnBxJKcwQnHp5p9cGv2D8C+A/D3w70NdA8OROkG8yyvK5eSWUgAuxPGSAOAABjgV2Vf0plmc4/D4KNCTSl1t362P2irwphcdVhjMxheqopSSfutrr0bPnH4cfsl/AD4XpFJ4e8I2V1exAf6fqi/b7osP4g824If+uaoPavoxESNBHGoVVGAqjAAHYCnUVzVa9Sq+apJt+Z9JhsJQw8OShBRXZKwUUUVkdAUySOOaNopVV0cYZWGQQexB60+igD5r+I/7Iv7PvxPSWTXfCdpY30uf9P0kf2fchj/ABEw7Uc/9dFcV+afxk/4JqeO/DEc+s/CLVF8U2UeX/s27222pKo5wj8QzED/AK5k9lJr9wKK9TB5zi8O/clddnqv69D5zNOFMsx6ftaaUu8dH/wfmmfD/wCyD8Hbf9m/4HS+IPGFubXxHrqrqerI4xNCoGLaz/3kVuR2kdh2riPEGuX3iTWLrWtQbM1y+7HZFHCoPZRwK+9fFHhfS/F2lPpGrB/KLB0aNirI65ww7HGehBFfGfjn4c614Jn8ycfatPdtsV2gwuT0Vxzsb9D2Pavg+MamMxNT28leG7t38/JLRHm5pl08LhqeHoR/dQX493/XVnntbfh/xDq3hjUo9V0eYxTJww6pIvdXXup/+uMGsSivhYTlCSlF2aPnoTlFqUXZo++vA3jjTPG+li7tcRXUWFubYnLRse49UPY/h1rtq/O3w34j1Pwrq8OsaW+2WI4ZD9yVD95GHcH9DyORX3j4W8S6d4s0aHWdNb5JBtkjP3opB95G9x+owe9fomSZusXDkqfGvx8/8z7zJ80WJjyT+Nfj5nQ0UUV7x7QUUUUAFFFFAH//0/38ooooAKKKKAI5pYreJ553WOONS7uxwqqoySSegA61+Vfxt+J8/wAS/Fsk9s7DRtPLQadH0DLn5piP70pGfZQB619W/tS/ERvD3hmLwXpsuy+11SbgqcNHZKcMPbzW+X/dDV+d1fmPG+cuU/7PpPRay9ei+W/r6H5Rx7nblUWXUnotZevRfLf19Aoor1r4OfDC7+J/ilNPbfFpVltm1GdeCseeI1P9+Qggegy3avhMLhqmIqxo0leT2Pz7CYWria0aFFXlJ2R2HwM+B9z8Rbsa/r6vb+HbaTBxlXvZFPMaHqEB4dx/ujnJX9J7CwstLsodO02CO2tbZBHFDEoVERegAHAFN03TbHR7C30vTIEtrS1jWKGGMYVEUYAAq7X7dkmSUcuo8kNZvd9/+B2P3rIMho5ZQ5IazfxPv/wOyCiiivbPeCiiigAooooAKKKKACiiigAqteWdrqFrLZX0STwTKUkjcblZT2IqzRSaTVmJpNWZ8VfE34Z3Hg65OpaaGm0id8Kx5a3Y9Ec+h/hb8Dz18kr9Jb6xtNTs5tPv4lmt7hDHJG4yGU9RXwn8QPBdz4J117E7pLOfMlpMf4o8/dJ/vJ0P4HvXwGfZP9Xft6K9x/g/8j4jOsqVB+2pL3X+H/AOGr0v4X+OJPB2vKty5/sy9Kx3S9kPRZQPVe/qufavNKK8HD4idCoqtN6o8ShWnRqKpDdH6XKyuodCGVhkEcgg9xTq8S+CXi863oLaDePuu9KCqhJ5e2PCH/gB+U+2K9tr9VweKjiKMa0NmfpeFxMa9KNWPUKKKK6ToCiiigD/1P38ooooAKKKKAPzq+J3wp+M/j3xxqniRtAkME0pjtFa5txstovliGPN4yBuPuTXBf8ADO/xi/6F5v8AwJt//jtfqlRXx1fgnB1qkqtSpNtu71XX5HxGI4DwNarKtUqTcpNt6rr/ANun5W/8M7/GL/oXm/8AAm3/APjtfoP8Jvh7a/DfwbaaEgVr2QeffzL/AMtLlwN3PdU4VfYe5r0uivQynhnCZfVdak25NW1tp6WSPSybhXB5bVdai25NW1tp6WSCiiivoT6UKKKKACiiigAooooAKKKKACiiigAooooAK4f4g+EIfGXh2bTsAXcWZbSQ/wAMqjgZ9GHyn657V3FFZVqMKsHTmtGZ1aUakHTnsz4Y/wCFRfEP/oEt/wB/of8A45R/wqL4h/8AQJb/AL/Q/wDxyvueivnv9VsJ/NL71/keF/q1hv5pfh/kfI/gTwP8RfCniiy1c6W4gD+VcgTRHMEnD8B+dv3h7ivriiivXy/L4YSDp022nrr/AMMj1MDgYYWDhTbafcKKKK7ztCiiigD/1f38ooooAKz9V1XTNC0261nWbqGxsLKJp7i5uHEcUUSDLO7MQFAHUmtCvxd/4KT/AB7v7/xFb/Afw9ctFp2nRw3uu+W2PtF1KA8Fu+OqRIVkI6FnXPKCu/LcDLF11Rjp3fZHjZ9nNPK8HLFVFd7Jd29l/XQ9E+L/APwU40XSNQn0b4NaCmtiFin9r6qzw2shHGYbdNsrr6M7Rk/3cV8uTf8ABST9pGW486NtAhTOfKXTmK49MtMW/Wvmb4G/BPxd8e/Hdv4H8JBImKG4vb2YEwWVqhAaWTHJOSFRRyzEDgZI/W7TP+CX/wAGINKW31bxH4iu9Q24a6hktoI9/qsJgkwM9i7H3r6+vSyjAWpVY3f3s/LMHiuKM65sThp8sL9Gor0XV/j6nifw3/4KieIIb2G0+LPhW1ubJiFkvdDZ4Z4x3Y287usn0Eie2a/WP4ffETwb8U/C1p4y8CanFqmlXYIWWPIZHX70cqHDRyL/ABIwBH0Ir+e/9qf9k7xH+zdqtndrenW/C+rO0dlqXl+VJHMo3GC4QEqsm0FlZTtcAkAEEC9+xT8e7/4L/Fyw06+umXwt4pni07VYGb91HJKdkF0B0DROQGPeMsD0GOfHZLhcRh/rOB9fJ/5M7cn4tzHA49ZdnOqva7tdX2d1uv68j+jeiiiviT9fCioJ7q1tsfaZo4t3A3sFz9MkVMrBgGUgg8gjoaAufDv7a/7THjj9nPS/Cs3gmx0y7m8QTX0cz6jHLIIharCV2LHJHyfMOck9BX5vz/8ABSP9pOViY30CEeiacxH/AI9Mxr6W/wCCq3/II+G//X1q/wD6Ba18H/sc+A/CXxK/aC8PeD/HGnpqmj3kOoPPayO8au0NrLImWjZG4dQeDzjmvuspweE/s5YmtTTau38mz8b4mzXNHnzy/CV3FNxS1sk2l+rPa9J/4KXftC2MyvqNp4d1KMH5kkspYiR/vRTrj8jX238BP+CiHgT4m6zZ+EPiDpv/AAiOs3zrDbXPnefps8znCoZGCvAzHAUOCpPG/OBXWfEn/gnz+z/4s8O3dr4O0hvCmteUxs720uJ5IlmA+QTQyySI8ZPDYCtjoQa/n61GwudK1C60u9XZcWU8lvMoP3ZImKMAfZgarDYXLMypyVGHK18n/kzPH5lxDkFaDxdVVIS+adt1qk0z+vCivn79lXxhqvjz9nnwN4n1uVp7+fTFguJnOXle0ke3MjHuz+VuJ7k19A18PWpOnUlTlum19x+w4XERr0YV4bSSf3q4UVU+32Hm+T9ph8zps3ru/LOat1nY2TuFFFISAMngCgYtFVYr6ymfyobiKR/7qupP5A1aoBO4UUVBPdW1sA1zKkQPQuwUfqRQBPRTEkSVBJGwdT0ZTkH8RT6ACiiigAooooA//9b9/KKKKACv5TfjL4pn8bfFrxj4ruGLtqWt30yE9ovOZYh9FjCgewr+rBwSjBepBx9a/kW1hJI9Xv45v9Yl1Mr5/vB2B/WvseEYrnqy62X6/wCR+VeKNSSo4eC2bk/uS/zP2x/4JfeDbXTvhZ4l8ctGv2vWtZ+xB8fMLewiQqAfQyTPn6D0r9Oq+Cv+Cb8kT/s02yx/ej1vU1f/AHt6N/6CRX3rXg5zNyxtVvv+R9rwpSjTyjDxj/Kn9+rPlf8AbV8IWvjH9mjxrbzxh5tKsxq9sxHMctgwlLD3MYdT7Ma/mryw5UlWHII6g1/Ut+0XJFD8A/iJJMQEHhjVs597aQD9a/lpr6rhOTeHnF7J/ofmnidTisbRqLdx/Js/RL9tz4ha94m0D4MeIbbUruAa14LhvbmOGeSNHuHMe9mVWAJ3ZGTzXlfwZ/a/8f8AwY+G/izwpotxcXur63cWj6XeXspuYtMVUkW5kRJCwLsPL2LjYCCzA4wX/tLxyxfC74ArMCGPghm5/utcZX9CKp/sU/B/QvjP8c7HQ/FUAutE0izn1e+tm4W5WBkSOJ8fwNLIpcfxKCO9d1Olh44C9aN4xu/ukzycRicfUzxRwk2qk1FX/wAUFf8AO/8AwT5r8R+MPFHjHVJdb8V6xe6xf3DFnuL24eeQk+hYnA9AMAdhXr/wS/aV+KXwN8Q2up+HdXurrSVlU3ui3MzyWV1Dn5lCMSI3xnbIgDA+oyD/AEYeK/g/8N/F/gy88Cap4e00aTdWz26wxWsUYgyuFeHao8t0PKsuCCOK/ld1SxfS9TvNLkbc9ncS27N6mJyhP44pZbmFDMac6Tp2S6b6MOIMkxmQ1qWIhXcnK+qundWvfV33+Z+r/wDwUo8T6X418AfCHxfoj+Zp+tJqF/bMevlXEFo6g46EA4I7Gvjn9i7xl4W8A/tEeHfFPjPU4NI0m0g1FZru5bbEhltJUQE4P3mYAe5rv/j5czXX7In7PMk7FmRPEEQJ/uRXCIo/BVAr5Q+HXw68W/FbxbaeB/A9ot9rN8szwQPNHAGEEbSv88rKgwik8nmqwGHhHL5UJu0ffV/K7Vyc6x1aWe08ZSjzTapSS7vli7fefvf8S/29P2ffBfhy8vfDfiCHxTrAiYWen6ckjrJMR8nmTFRHHGDjcd27HQE8V+A2iaF4q+J3jOLRtAs5NT17xBeuY4IVyXmncu7HsqAkszHhVBJOBX0Prn7DX7UWg2T39x4Kluo4wWZbG8tbuXA9IopWdj7KpPtXAfB747/Ez9nfxHcXnhJbW3nMnk6hZajYxu0nlthoZHZVuYsEYKpImD1GajLcJQw9KbwMlOT7v7tjTP8ANMbj8TSWdU3SprtF9d3q9f07H9Hnwb+HsPwp+Fvhj4eRSCY6Hp0VtLKv3ZJ8b5nHs0rMR7GvwL/ag8V/HK4+OfjDwFrniDX9RSy1a5Fjp0U85iFlM3m23l28WF2mF0wduT35r9vv2b/2gvDn7RPgFfFekQmw1GzkFrq2ms+9rW5xuG1sDfFIPmjbAyMgjcpAt/FP45/A/wCB9y+pePdYsNN1e8iU+RBF5+p3EacLmOFWlKDorPhO2a+UwGKrYXFzU6XNN9Ot779T9MzvLsLmOW0nRxHs6Str0cbWtuvx27H81epeC/iHo1udU1fQNbsYFG83NzZXMKAepkdAB9c17N8Fv2s/jJ8FdWtptL1q51jREcfadF1KZ7i1liz8wjLlmgfHRoyOeoYcV+o2o/8ABTT4Ah5LSLRPEl9buCjMbO2VHU8EbZLkEgjsQK/GH4q6x4O8QfEfxFrvw/spdN8O6hfy3Wn2cyLE8EUuGMexGdVCsWCqGIC4Ar7DC1amLUqeMocq8z8rzPD0MqlDEZVjOeV9baNee9mv61P6LvFv7Sngzw9+zz/w0JZK15pt1YRXFhaFgkk13cMI47ZjztZZsrIRnaFY84r8Afil+0P8YvjPrEt74v8AEF5JBNIfI0uzkeCxhDHCpHAhAbHA3Nuc9ya+nIrfXPEn/BNxzbCSaDw144aSYLk7LRupP+ys10CfTrXxR8OPGUnw78feHvHcNnFqD6BqNvfraznEcxgcNtJwduccNg7Tg4OK5cny6lQVWUVzSUml8tl5HpcV59icW8NSqTcKcoRk7d3u/O3RHSj4NfHOwsl11fBXim3t9vmLcrpl4gC9d24Rgge9fp1/wTS1r4qeItR8Yy+Kte1a/wDD2jW9tYwWWo3Ek0cV9M5dtglLMjRxx4KggYcZHSvdvh3/AMFE/wBn7xkIbbxHcXvhC+kADJqcJktgx7C5g3rt/wBpxH74r6Q+IfxB0Dwr8G/FXxV8J3FleQW+j3mp295ZNHLDczpCRE3mJlXy4Vc5PAx2rycyzLE1abw1ehyuVkn8/wCup9Nw/wAP4DDVlmGDxfPGCba+XXXT0aPz0/bL/bm13wx4gvvhL8F7pbS709jBrGuqA8kc44e2tc5VWj6SSkEhsquCpavy1tdL+LXxZv7nULO18ReMLtW3XE8cd1qTqx5+dgJCD9TXBTT3F/dSXN7MXnuZGkmmkJZmeQ5Z2PUkkknua/fj4X/tWfsbfCrwJo/gTwz4sitrPS7aOJimm3waabaPNmkP2f5pJXyzE9z6Yr2KlNZZQjHC0nOT3aX4v9EfK0Kz4hxlSpmOKVKmtk2lvskm0vV6/ifi14N+KXxi+CHiIv4a1jVvDuoWcgE9hOZEiJHOye0mGxgfRkz6Y61+/H7J/wC0tpv7RvgeW/uYY9P8TaM0cGsWMZPl7nBMdxDklvKl2nAOSrAqScAn84f28vix+zr8aNC0HxL8Ntai1Dxbpt39luNllc27zadKjsd7ywxq3lSquwEkje2OprzL/gnb4svPD37Sem6PFIVtvEen32n3CdmMURuoyR6hocD0DH1rnzHDRxuBeJnT5KiV9tdN/VW2O7IsxqZTnMcvp11VozaWjutdnu7NPRn9ClFFFfAn7WFFFFAH/9f9/KKKKACv5cf2kfBNx8PPjt428LTRmOOLWLm5tsjG61vG+0Qke3lyAfUV/UdX5nf8FBP2YdV+JOl23xd8A2bXmv6HbG31OygXdNe2CEurxqOXlgJb5RyyEgcqAfoOHMdHD4nlqOylp8+h8Px7k9THZep0VeVN3t3XX/P5HFf8EuviPYy6B4r+FF3OqXlvdrrdlExwZIJkSCfb6+W8cZP+/X6zV/JX4O8ZeKfh54msvFvg/UJtK1jTJC8FxFwynlWVlIIZWGVZGBDDIIr9C9N/4Kh/F220pLXUfC2gXt8iBftebiFXYfxNCshGT3Cso9MV6mc8P162IdbD2alv01PnOFOOMHhcDHCY66cNE7Xuv81sfeX7fnxGsPA37O2taO8yrqPi1o9Hs4s/OyOwe5bHXasKsCexZR3FfzyWVjd6ne2+m6fG011dypBBGoyzyysFRQPUsQBXpvxg+NfxC+OXif8A4Sn4g6gLqaJDFa20K+VaWkROSkMWTtBPLMSWY/eJwMfcP/BP/wDZf1bxV4tsfjd4zsnt/DuiP5+ixzoVOoXy8JMoPWGA/MG6NIFxkK1enhKUcqwLlVeu/wA+iR89meJqcTZxCGFi1BWS8le7k/v/ACRg/wDBQvwungmf4SeDo8Y0Twgun5XoTbMkZP4lc1Z/4Jg/8lz1/wD7Fe4/9K7Wun/4Km/8lE8D/wDYFuv/AEoFcx/wTB/5Lnr/AP2K9x/6V2tc6k5ZI5Pdp/md8qcYcYRhHZSS/wDJUfuzX8k/jL/kcNe/7Cl7/wCj3r+tiv5J/GX/ACOGvf8AYUvf/R71w8I/HV+X6nr+KX8LD+sv0Prv45/8mgfs9/73iT/0qWs39gD/AJOn8K/9e+qf+kM1aXxz/wCTQP2e/wDe8Sf+lS18+/Av4t3vwO+Jml/ErT9Oi1WfTEuYxaTSNCji5heE5dQxBUPkcHkV71OnKpgqtOG7c1/5Mz47EYmnh85w1eq7RiqLfooRP6n6/n4/4KO6PoWlftHST6OkcU+paLY3eoLGAM3RaWPewH8TRRxk9z1PWvVdd/4KlfEG7sJIPDvgrSdNu3Uhbi5u5rxUJ/iEYSHJHu2K/Nzxn4z8S/EHxPqHjLxjfyalq+py+dc3MuAWOAAAAAqoigKqqAFUAAV5OQ5NicNXdatorWtff7j6TjbizL8fg1hcI3J3TvZpK3rrc+w/2IvinqPwnb4r+J7ZfOh07wXNqSwNny3vba5iitdw9N9wQe+Ca+Q7m98V/FDxuLnVLuTVfEPiXUI42nuHy01zdSBEyT91dzAADhV4AwMV+m/7LH7J3irVP2dfiPrmtWr2Or+P9FNhoNtcDy5Ps8H7+ORw2Cq3E6ptz/Aobowr8sopNb8JeII5dkunavot6r7ZF2y293ayAgMrDhkdeQe4r2MJUo1MTXlStzKy/D/M+WzXD4rD5fg6eJTVN3dvWX52s16n7T+Ev+CXvwvtdIhXxt4m1rUdUZAZ309oLS2VyORGrwyuVB6FmyeuB0r8m/jx4B0n4W/GDxV8PtCnuLmw0O++zW8t0VaZkMaP85RUUnLY4UV+jvhv/gqfLBo8MPi3wCbrU44wss9hqIhglcDlhHJC7R5643NivzR+MPxC/wCFsfE7xF8RjY/2Z/b139p+yeb53kgIqBfM2pu+7nO0da5MohmKryeM+G2m1r38j0uKa2QSwdNZUlz310d7We7fnY/Zn/gnHpem65+zHqujaxaxXtje+INTgubadBJFLFJBbKyOp4KsDgg1xHxT/wCCYnhPWry41X4T+I5PD5lJddM1GM3dohPO2OZWEyJ6BhKR61498DPj1qf7Pn7ENx4r8PRW1xrd/wCOJrCxivFZ4TmGCWZnVWRiBFGw4YYZga7HQf8Agqmy2ap4o+HvmXQHzSafqeyJj7JLAzKP+BtXk1MPmUcVVr4PZyfb8mfUUsdkE8vw+DzW3MoJp2el/Na/I/P/AOOP7NfxT/Z+u7VPHtlA1jqDvHZ6lYzefaTugyUyQro+3na6KSMkZwa3/gX8RfE9r4M+I3wfiuJp9G8TeF9Tu47MsWSG906L7X5sa/wl4YZEfH3vlJ+6K6X9qL9r3xJ+0mmm6NJo0GgaDpM7XUFqkpuZ5bhkMYkllKoPlRiFVUAG45J4x65/wTr+COo+NviHf/EbWbJj4Y0fT73TvMkUiO7utQha3eFCfvBIJHLkfdJUd696tWnDAOpjklJa/O+nzPisJhaNTO1QyaTdN6XfZr3u2lr7n5zRKryIjuI1ZgC56KCeSfYda/TW2/4JffEy8t4ru18a+HpYZ0WSN1juirI4ypB8voQcivjb9oH4IeJPgJ8RtQ8Ga1DI1g0jzaRfMp8u9sSx8t1boXUYWRequD2IJ+kPgZ/wUH+JXwl8N2fgzxHpdv4u0fTo1gsmnna1vYIUGFi84LIsiIOFDJuAwN2AAKx1TF1aUauXyT+7X7zLJqGWYfFVMLnkGraJ66Nb3t37noH/AA62+Kf/AEOXh/8A793X/wAbr2/9nL9gXx18GvjFoPxI1/xLpGoWej/ama3tEnEztPbyQrguoXAMmTk9BXn2s/8ABVPV5LYr4e+HlvBORw97qbTID7pHBGT/AN9Cvrz9iv8AaS8Q/tE+E/EV14xhtINa0TUlRksUaKH7HdJugwrs7ZVkkUksc4FfPY6vnEMPKWIso7Pbrp0Pu8nwnC1bH06eBu6i95fFa8dep9p0UUV8gfqIUUUUAf/Q/fyiiigAooooA+Ufi9+xf8B/jHfTa3rGkSaPrVwS0upaNILWWZz/ABSxlXhkb1Zoyx7tXy5N/wAEsPAbXG638d6ykGfuPa27vj/fG0f+O1+p+9P7w/Ojen94fnXpUc2xlKPJCo7ff+Z4OL4ZyrEzdStQi5Prt+Vj4Z+G/wDwT1/Z+8BXsOq6tbXvi28gIZP7ZlVrVWHIP2aJI43+km8e1fccEEFrDHbW0axQxKEjjRQqIijAVQOAAOAB0p+5P7w/OnVy4jFVq75q0m/U9DA5bhcHDkwtNRXkvz7nyx+0J+yV4A/aN1TSta8Wanq2nXekW0lrAdPkhVGjkfed6yxSZOehBHFZ37P/AOxz8O/2ePE154t8LarrGo6he2Lae/8AaEkJiELyRyEqsUMZ3boxyWPGeK+uKK0WPxCo+w53y9jF5JgXivrrpL2nfqFfnFrX/BM34NaxrN3q48ReJIPtlxLcSRLLasA0rF2Ck22cZPGc1+jtFThsZXw7boytcvMMpwmOUVi6alba58Z+MP2H/hZ4y+GXhD4W3uqa5b6f4J+2f2dcRTwfaHN84kl87dAUb5h8u1VwPWvn66/4JY/D52Js/HGtxL2EttbSH8wEr9TaK6KWb4ymrQqPv95w4nhfKq8lKrRTdkuuyVls+iR+WVl/wSx+H0cgOo+ONanQdVhtraEn8WEn8q+jfhl+wx+zz8Mb+HWLfRZdf1K3YPFc65KLsRuvRlhCpACDyCYyR2NfYFFFXN8ZUXLOo7fd+Q8LwvlWHkp0qEbr5/ncAABgV8wfGb9kD4I/HC+fW/E+lS6frcgAfVdKkFtcyYGB5oKtFKR6uhbHGcV9P0VxUa9SjLnpSafkeri8HQxVP2WIgpR7NXPyvuv+CWHgJ5i1l461mGLPCy2tvK2P94bB+ldT4d/4Jh/BbTpVl8Ra94g1kL/yyEsFpG318uIv+Tiv0nor0JZ5jmrOo/wPDhwfk0Zcyw6/F/qfLOufsafALW/h1Z/C/wDsS4sdF0+9l1G2+yXs6zx3k6COSYyO772ZFAIcMvHAFfLup/8ABLP4czTs+keNdctISfljngtrggem5Viz+VfqRRWdHNsZSvyVH+f5nTiuGsrxNva0Iu2m1tPlY/OjwT/wTQ+B/h69jvvFOo6x4o8pg32aeVLS1bHZ1gVZCPbzAK+/9A8P6H4V0e18PeGrC30zTLGMRW9paxrFDEg7KqgAep7k8nmtiisMTja+Id602zry/KMFgU1hKajftv8AfucN8Qfhp4E+Kmgv4a+IGi2utaex3LHcL88T9N8UikPG/wDtIyn3r4I8S/8ABMD4QaldPceGvEeu6LGxyIHMN5GnspdFkx/vOx96/S3zI/7w/MUeZH/eH5irw2PxWHVqM2kZZhkuX4582KpKT79fvVmfl7pf/BLX4aQTK+s+M9dvIweUgitrYn/gRSXFfanwV/Z2+F/wBsr61+HdjcQy6p5X226urmS4muPI3eXu3EIu3e2AiqOa9u8yP+8Pzp9ViczxdaPJVm2uxngOHstwc/a4ailJdd397CiiiuA9oKKKKAP/0f38ooooAKKKKAPjz4i6FL4d8T3EUZZba7JuYME4CufmUf7rZH0xXC+ZJ/fb/vo19c/EvwsfEmgM9qm69sczQY6sMfOn/Ah09wK+Q6/SclxyxOGV/ijo/wDP5n4NxZlMsBj5KPwT1j+q+T/Cw/zJP77f99GvrT4aeLh4k0VbW6fOoWIWObPV06JJ+IGD7j3FfJFbfh7Xr3w3q0OrWB+eI4dD92SM/eRvY/ocGrzbL1i6HIviWq/rzMeG88lluLVSWsHpJeXf1X+a6n3LRWNoGvaf4j0yLVNOfdHIMMp+9G46qw7Ef/X6Vs1+azhKEnCSs0fvdKrCrBVKbunqmFFFFSaBRRRQAUUUUAFFFFABRRRQAUUUUAFfPv7QPxJXwd4ZOg6bLt1fWUaNNp+aC2PEknsT91PfJ/hr1Lxz420bwD4fn17WH4QbYIFOJJ5iPljT3Pc9AMk1+XvivxPqvjHXrvxFrMm+5unztH3I0HCxoOyqOB+Z5Jr7rgnhx43ELF11+6g//An29F1+4/GPF/j6GUYF5Zg5f7RVVtPsRe79XtH5vor4Xnz/APPV/wDvo0v2i4/56v8A99GoaVVZmCqCzMQAAMkk9AB61+42R/HHNLue2/AbwlceMPHtrJcl3sNIxfXOSSpZD+6Q/wC8+DjuFNfpNXkPwV8Af8ID4Mht7xNup6gRdXx7q7D5Iv8AtmvH+9uPevXq/n3i/OFmGYSdN+5D3V+r+b/Cx/cvhXwpLI8jhGurVqnvz7q+0fkt/NsKKKK+WP0kKKKKAP/S/fyiiigAooooAK+XPir4MOi6gde0+P8A0G9fMgUcQztyfor9R75HpX1HVPULC01Sym0++jEsE6FHQ9wf5EdQexr0cszCWErKotuq8jxM/wAlp5nhXRlpJaxfZ/5PqfBdFdj408H3vhDUzbyZks5iTbT9mX+63o69x36iuOr9Lo1oVYKpTd0z8CxWFq4arKhWVpLdHV+EfF2o+EdQ+1Wn7yCTAuLcnCyKO49GHY/nxX11oHiHS/EtguoaXKJEPDoeHjb+647H9D2r4arX0TXdV8PXq3+kzmGQcMOqOv8AddehH8u1ePm2Swxa54aT/P1/zPpuG+K6uWv2NX3qT6dV5r/I+6aK5Xwx4jk1jw3Dr+rQppysrOxdwI9i/wDLTLY2qeoz2711IIIBByDyCK/PqtN05unLdH7Zh68K9KNantJJrpoxaKKKg2CiiigAooooAKKKa7rGpdyFVQSSTgADqSaAHVxnjjx54e8AaO2r69PtzlYLdMGadx/Ci9/cngDqawfi14+1D4e+FDr2l6f/AGg8kiwhy2IYDIDtkkx8xUngAYySORX5teJPE+u+LtVk1nxDdvd3UnGW4VF7KijhVHYD+dfbcLcIzzP/AGmtK1JPpu/Ly9X8j8g8SfFKlw9fAYSHNiWrq6fLFPZv+byS07tbPc+IHxB1z4ia42r6u2yJMra2qHMdvGew9WP8TdSfQAAcLRRX7hh8PToU40aMbRWiSP45x2OxGNxE8VipuVSTu292/wCvu2QV9Q/s5/C9te1VfHGtRf8AEu06T/Q0ccT3K/x47pEfzfH9015r8JvhdqPxJ1sRkPBpFoyte3QGOOoijPeRh/3yOT2B/S/TNNsdH0+30rTIUt7S1jWKGJBhVRRgD/6/U18DxvxMsNSeAwz/AHkt3/Kv83+C+R+2+Dvh3LMMTHO8wj+4g/cT+3Jdf8MX9706MvUUUV+Ln9cBRRRQAUUUUAf/0/38ooooAKKKKACiiigDK1rRdO1/T5NM1OISQyD6MrDoynsw7Gvkfxj4K1PwhebZwZrKRv3FyB8rf7Lf3X9u/avs2qt7Y2mpWsllfwpPBKNrxuMgivWyvNqmDlbeL3X6o+a4h4aoZnTv8NRbS/R+X5fn8E12XgbwtJ4r12OzYEWkOJbpx2jB+6D6ueB7ZPauz8Y/CXUNMZ77w2r3tqTk2/WeP6f31/8AHvr1r0bT00b4Q/D2+8Qa84jWzt3vr+QdWdRxGvqc4RR3Y+9fUZln1CnhHVoy1f4d2/Q/Osn4SxDzD2eOhaENW+jXRJ+fXyv1Plj9tb4pRaLoNn8JNCkCTakiXGpCPjy7KM4ih46ea65I/upjo1fIHw3/AGjfip8MhFaaTqZ1DTI8AadqObiAKO0bZEkY9kYD2rzTxx4w1Xx94t1TxhrTZutTuGmK5yIk6Rxr/sxoAo9hXK1/NOPzitWxksTTk10Xp/WrPexmZ1amJdek2uit2P1N8F/ty+BNUWO38baVeaFOcBpoB9stc9z8oWVR7bG+tfS3h34z/CnxWqnQvFWl3DN0ie4WGX/v3KUf/wAdr8HKQqG4YA/WvRw3FmLgrVUpfg/w0/A76HE2JgrVEpfg/wCvkf0WRTQ3CCSCRZEPRkIYH8RUtfzuWup6nY4+w3lxbY6eTM8f/oJFav8AwmHi8rs/t7VNuMY+2z4x/wB916MeMo21pfj/AMA71xXHrT/H/gH9BE9xb2sZluZUiQdWdgoH4mvMvEfxu+EnhNWOueK9MidesUU63E308uHe+fwr8LrrUdQvjm+up7kn/ntK0n/oRNUgAowBj6VjV4xm1+7pJerv/kZVOKpv+HT+93/yP1F8aft0+DtOWS38C6Nd6xOAQtxdkWdsD2O35pWHsVT618SfEj9oH4ofFASWuv6q1tprk/8AEtsAbe1x6OAS8v8A20ZvpXi1FeDjM7xmJXLUnZdlov8Ag/M8XF5visQrTlp2WiP1t/Zf8fWHxe+E1z4C8UkXN9osI066Vz881k4It5cnncoGwnqGQN1Ir5c8c+ENQ8C+J7zw5qGWNu26GXGBNA3Mcg+o6+jAjtXiXwO+Jk/wo+I2m+Jyzf2e7fZNSjX+OzmIDnHcxkCRfdcd6/Uz48eAIfH/AIQh8TaAoudQ02L7RbtF832q0cbmRcfe4+dMdTkD71ft/hLxf7KSwuIl7rsn5P7Mv0f39D5HxC4Y/wBYcj+t0FfE4dfOUOq831XmmvtH55V6z8LvhLrnxJvw6BrPR4Hxc3rDg46xxA8M/wCi9T2B9Q+F/wCzhqOsNDrXjxXsLHh0sAdtxMO3mHrEp9Pvn/Zr7e07TrDSbKHTdMgjtbW3QJFDEoVEUdgBX6lxNxxSwyeGy981TrLovTu/w/I+E8PPBvE4+UcwzyLhR3UNpT9esY/+TPpbcoeHPDmj+E9Ht9C0K3W2tLZcKo5LE9WY9WZjySetblFFfjdSpKpJzm7t7s/rGhQp0KcaNGKjGKsktEktkkFFFFQahRRRQAUUUUAf/9T9/KKKKACiiigAooooAKKKKACvMvi38MdO+Lng+bwhqd/d6dE8qTrLasP9ZFkoJEYESICcleOQDkEV6bRWdWlCpB05q6ZFSnGpFwmrpn4z/Eb9lH4r+AWlu7Ky/wCEj0xMkXWmKXlVfWS35kU467d6j1r5pkR4pGhlVkkQ7WRgVZSOxB5B+tf0XV534y+Evw3+ICn/AIS7w/ZX8pGBcGPy7kfSaPbIP++sV8hjOEISfNhp28n/AJ7/AJny2L4Xg9cPK3k/8/8Ahz8E6K/UrxP+wp4Dv2aXwprmo6OxyRFOEvYQfQZ8uTH1c14brX7C/wATbIs2i6xpGpIPuh2ltZD+BR1/8er56tw7j6f2L+jv/wAE8KtkWNp/Yv6f1c+J6K+lrz9kX49WhIXQYbkDvBfW5B/76dT+lZf/AAyx8e/+hUl/8C7X/wCPVwvLMYt6Uvuf+RyPLsUt6cvuZ8+0V9MWf7IXx5uyA+hwWwP8U99bgD8Edz+lei6J+wr8SLwq2u63pOmofvCLzbqQfhtjX/x6taeTY6btGk/mrfmaQyrGT0VN/db8z4iqSGGa5mS2to3mmkO1I41LOxPYKAST9K/U7wv+wv8ADzTWWXxTq+o624wTHHtsoT7EJvkx9JBX1F4P+F/w+8ARhPCGg2WmtjBmjiDTt/vTPukb8Wr18Nwlipu9ZqK+9/5fieph+GcRPWq1Ffe/8vxPyv8Ahx+yP8U/HLRXmsWw8MaW+CZ9QU/aGX/pnbAh846bygr9XPAHhCLwD4O0rwfBfXOoxaVAII7i7KmVlBJAO0ABVB2qOygDJxmuwor7DLMmw+Cu6d3J7tn1OX5VQwmtPVvqwooor1j0wooooAKKKKACiiigAooooA//1f38ooooAKKKKACiiigAooooAKKKKACiiigAooooAKKKKACiiigAooooAKKKKACiiigAooooAKKKKACiiigAooooA//W/fyiiigAooooAKKKKACiiigAooooAKKKKACiiigAooooAKKKKACiiigAooooAKKKKACiiigAooooAKKKKACiiigD/9k=" vertex="1" parent="SBrDxnc8rNuMI0Z8W_tl-25">
          <mxGeometry y="1" width="29" height="29" as="geometry" />
        </mxCell>
        <mxCell id="SBrDxnc8rNuMI0Z8W_tl-26" style="edgeStyle=orthogonalEdgeStyle;rounded=0;orthogonalLoop=1;jettySize=auto;html=1;entryX=0;entryY=0.5;entryDx=0;entryDy=0;" edge="1" parent="1" source="SBrDxnc8rNuMI0Z8W_tl-2" target="SBrDxnc8rNuMI0Z8W_tl-22">
          <mxGeometry relative="1" as="geometry" />
        </mxCell>
        <mxCell id="SBrDxnc8rNuMI0Z8W_tl-34" value="" style="group" vertex="1" connectable="0" parent="1">
          <mxGeometry x="310" y="-70" width="190" height="140" as="geometry" />
        </mxCell>
        <mxCell id="SBrDxnc8rNuMI0Z8W_tl-18" value="&lt;span style=&quot;color: rgb(255, 128, 0); font-size: 16px; font-weight: 700;&quot;&gt;&amp;nbsp;VU-CIAM&lt;/span&gt;" style="rounded=1;whiteSpace=wrap;html=1;align=left;verticalAlign=top;" vertex="1" parent="SBrDxnc8rNuMI0Z8W_tl-34">
          <mxGeometry width="190" height="140" as="geometry" />
        </mxCell>
        <mxCell id="SBrDxnc8rNuMI0Z8W_tl-32" value="&lt;b&gt;Login&lt;/b&gt;" style="rounded=1;whiteSpace=wrap;html=1;align=center;verticalAlign=top;fillColor=#f5f5f5;fontColor=#333333;strokeColor=#666666;" vertex="1" parent="SBrDxnc8rNuMI0Z8W_tl-34">
          <mxGeometry x="30" y="40" width="130" height="30" as="geometry" />
        </mxCell>
        <mxCell id="SBrDxnc8rNuMI0Z8W_tl-33" value="&lt;b&gt;SSO&lt;/b&gt;" style="rounded=1;whiteSpace=wrap;html=1;align=center;verticalAlign=top;fillColor=#f5f5f5;fontColor=#333333;strokeColor=#666666;" vertex="1" parent="SBrDxnc8rNuMI0Z8W_tl-34">
          <mxGeometry x="30" y="90" width="130" height="30" as="geometry" />
        </mxCell>
        <mxCell id="SBrDxnc8rNuMI0Z8W_tl-35" value="" style="rounded=1;whiteSpace=wrap;html=1;" vertex="1" parent="1">
          <mxGeometry x="575" y="390" width="195" height="190" as="geometry" />
        </mxCell>
      </root>
    </mxGraphModel>
  </diagram>
</mxfile>
